<svg xmlns="http://www.w3.org/2000/svg" viewBox="0 0 128 128">
  <defs>
    <linearGradient id="g" x1="20" y1="14" x2="108" y2="116" gradientUnits="userSpaceOnUse">
      <stop stop-color="#2563EB"/><stop offset="1" stop-color="#1346B8"/>
    </linearGradient>
  </defs>
  <rect x="8" y="8" width="112" height="112" rx="29" fill="url(#g)"/>
  <path d="M39 28h34l18 18v49a7 7 0 0 1-7 7H39a7 7 0 0 1-7-7V35a7 7 0 0 1 7-7Z" fill="#fff"/>
  <path d="M73 28v14a5 5 0 0 0 5 5h13" fill="#BDD1FF"/>
  <path d="M46 59h30M46 70h35" stroke="#8DADFA" stroke-width="6" stroke-linecap="round"/>
  <circle cx="76" cy="83" r="16" fill="#14A06F" stroke="#fff" stroke-width="4"/>
  <path d="m68.5 83 5 5 10-11" fill="none" stroke="#fff" stroke-width="5" stroke-linecap="round" stroke-linejoin="round"/>
</svg>
